<svg width="16" height="16" viewBox="0 0 16 16" fill="none" xmlns="http://www.w3.org/2000/svg">
<path d="M12.2219 0.352185C12.4458 0.577756 12.5715 0.883657 12.5715 1.20262C12.5715 1.52157 12.4458 1.82747 12.2219 2.05305L6.31102 8.00726L12.2219 13.9615C12.4394 14.1883 12.5598 14.4922 12.5571 14.8076C12.5543 15.123 12.4288 15.4247 12.2074 15.6477C11.986 15.8707 11.6865 15.9972 11.3734 16C11.0603 16.0027 10.7586 15.8815 10.5334 15.6623L3.7783 8.85769C3.55444 8.63212 3.42868 8.32622 3.42868 8.00726C3.42868 7.6883 3.55444 7.3824 3.7783 7.15683L10.5334 0.352185C10.7574 0.126681 11.061 0 11.3777 0C11.6943 0 11.998 0.126681 12.2219 0.352185Z" fill="white"/>
</svg>
